<?xml version="1.0" encoding="UTF-8" standalone="no"?>
<!DOCTYPE svg PUBLIC "-//W3C//DTD SVG 1.1//EN" "http://www.w3.org/Graphics/SVG/1.1/DTD/svg11.dtd">
<svg width="100%" height="100%" viewBox="0 0 468 443" version="1.1" xmlns="http://www.w3.org/2000/svg" xmlns:xlink="http://www.w3.org/1999/xlink" xml:space="preserve" xmlns:serif="http://www.serif.com/" style="fill-rule:evenodd;clip-rule:evenodd;stroke-linejoin:round;stroke-miterlimit:2;">
    <g transform="matrix(1,0,0,1,9.55458,14.414)">
        <g transform="matrix(0.895637,0,0,0.864597,0.702583,-13.5825)">
            <rect x="-1.085" y="-0.962" width="511.873" height="512.283" style="fill:rgb(60,48,48);"/>
        </g>
        <g>
            <path d="M231.138,235.305C231.14,235.412 231.144,235.518 231.147,235.624L196.593,-55.739C195.779,-62.602 200.628,-69.176 207.415,-70.411C214.201,-71.646 220.372,-67.076 221.185,-60.213L253.494,212.209L256.123,204.158C256.406,204.111 256.688,204.07 256.972,204.033C256.688,204.07 256.406,204.111 256.123,204.158L343.943,-64.69L367.31,-57.002L276.526,220.922L281.962,215.881C282.187,216.226 282.405,216.576 282.615,216.931C282.405,216.576 282.187,216.226 281.962,215.881L485.573,27.067C490.68,22.331 498.36,22.882 502.713,28.297C507.066,33.711 506.454,41.952 501.347,46.688L279.359,252.543C281.926,249.481 283.953,245.827 285.238,241.719C286.204,238.634 286.68,235.521 286.71,232.474C286.68,235.521 286.204,238.634 285.238,241.719C283.953,245.827 281.926,249.481 279.359,252.543L279.275,252.645C272.064,261.288 260.686,265.319 249.992,261.972C238.667,258.428 231.428,247.65 231.147,235.624L231.145,235.544C231.141,235.438 231.138,235.331 231.136,235.225L231.138,235.305ZM266.472,260.383C266.447,260.383 266.423,260.383 266.399,260.383L266.326,260.384C266.399,260.384 266.472,260.383 266.545,260.382L266.472,260.383ZM265.961,260.377L266.034,260.379L266.107,260.381L266.034,260.379C266.01,260.379 265.985,260.378 265.961,260.377ZM268.191,260.233C267.848,260.289 267.503,260.33 267.158,260.354C267.503,260.33 267.848,260.289 268.191,260.233ZM264.872,260.289C264.904,260.293 264.936,260.297 264.969,260.301L264.944,260.298L264.872,260.289ZM268.438,260.19C268.414,260.194 268.39,260.199 268.366,260.203C268.39,260.199 268.414,260.194 268.438,260.19ZM268.788,260.119C268.704,260.137 268.619,260.155 268.533,260.171C268.619,260.155 268.703,260.137 268.788,260.119ZM269.374,259.975C269.332,259.986 269.29,259.997 269.249,260.008C269.314,259.991 269.38,259.973 269.446,259.955L269.374,259.975ZM262.535,259.73C262.813,259.828 263.094,259.916 263.377,259.992C263.094,259.916 262.813,259.828 262.535,259.73ZM270.086,259.755L270.136,259.737L270.086,259.755ZM261.501,259.307L261.434,259.275C261.786,259.443 262.146,259.591 262.51,259.721C262.169,259.6 261.832,259.462 261.501,259.307ZM270.227,259.705L270.187,259.719L270.227,259.705L270.263,259.692L270.227,259.705ZM271.001,259.396C271.045,259.376 271.09,259.356 271.134,259.336L271.065,259.367L271.001,259.396ZM272.142,258.816C271.945,258.93 271.746,259.037 271.546,259.138L271.477,259.173C271.702,259.061 271.923,258.943 272.142,258.816ZM260.967,259.04L260.902,259.005C260.989,259.053 261.078,259.099 261.166,259.144C261.099,259.11 261.033,259.075 260.967,259.04ZM260.575,258.822C260.652,258.867 260.729,258.911 260.807,258.954C260.751,258.923 260.695,258.891 260.64,258.859L260.575,258.822ZM272.401,258.663C272.324,258.71 272.247,258.756 272.169,258.8C272.247,258.756 272.324,258.71 272.401,258.663ZM260.342,258.682L260.316,258.667L260.252,258.627C260.282,258.645 260.312,258.664 260.342,258.682ZM260.125,258.546L260.15,258.562L260.125,258.546L260.089,258.523L260.125,258.546ZM273.136,258.176C272.955,258.305 272.773,258.428 272.588,258.546C272.773,258.428 272.956,258.305 273.136,258.176ZM259.255,257.927C259.331,257.988 259.409,258.046 259.487,258.104C259.429,258.062 259.372,258.018 259.315,257.975L259.255,257.927ZM258.602,257.38C258.63,257.405 258.659,257.43 258.687,257.456L258.66,257.432L258.602,257.38ZM258.147,256.947C258.239,257.039 258.332,257.13 258.427,257.218C258.351,257.148 258.277,257.076 258.203,257.003L258.147,256.947ZM257.954,256.75L257.925,256.72L257.871,256.662C257.899,256.692 257.926,256.721 257.954,256.75ZM256.724,255.249C256.797,255.353 256.871,255.456 256.947,255.558C256.871,255.456 256.797,255.353 256.724,255.249ZM254.713,250.527L254.718,250.551L254.731,250.605C255.017,252.032 255.56,253.407 256.342,254.669C255.576,253.434 255.04,252.09 254.749,250.695L254.731,250.605C254.725,250.579 254.719,250.554 254.713,250.527ZM243.233,250.351L243.156,250.351C243.194,250.351 243.233,250.351 243.271,250.351L243.233,250.351ZM243.002,250.349L242.925,250.347C243.002,250.349 243.079,250.35 243.156,250.351L243.079,250.35C243.053,250.35 243.027,250.349 243.002,250.349ZM243.855,250.334L243.776,250.338C243.698,250.342 243.621,250.344 243.543,250.347L243.465,250.348C243.595,250.346 243.724,250.341 243.855,250.334ZM244.089,250.32C244.037,250.323 243.984,250.327 243.933,250.33L244.011,250.325C244.063,250.322 244.115,250.318 244.167,250.314L244.089,250.32ZM242.175,250.305L242.162,250.304L242.175,250.305ZM244.403,250.293L244.341,250.299L244.403,250.293L244.438,250.29L244.403,250.293ZM241.86,250.273C241.922,250.28 241.984,250.287 242.047,250.293C242.01,250.289 241.973,250.286 241.936,250.282L241.86,250.273ZM245.193,250.19L245.114,250.203C244.929,250.232 244.744,250.256 244.561,250.277L244.482,250.285C244.718,250.261 244.955,250.229 245.193,250.19ZM241.607,250.241C241.642,250.246 241.676,250.25 241.71,250.255L241.636,250.245L241.607,250.241ZM240.604,250.059L240.531,250.042C240.821,250.11 241.115,250.167 241.412,250.213C241.14,250.171 240.87,250.119 240.604,250.059ZM245.352,250.164L245.432,250.149C245.405,250.154 245.379,250.159 245.352,250.164L245.273,250.177C245.299,250.173 245.326,250.168 245.352,250.164ZM245.957,250.042C245.887,250.058 245.816,250.074 245.745,250.088L245.682,250.101C245.774,250.082 245.866,250.063 245.957,250.042ZM246.117,250.005L246.055,250.02C246.076,250.015 246.096,250.01 246.117,250.005ZM246.301,249.959C246.281,249.964 246.26,249.969 246.24,249.975L246.181,249.989C246.242,249.974 246.302,249.959 246.362,249.943L246.301,249.959ZM240.14,249.943L240.171,249.952L240.14,249.943ZM246.518,249.901L246.476,249.912L246.518,249.901ZM246.913,249.784C246.793,249.822 246.672,249.858 246.55,249.892C246.672,249.858 246.793,249.822 246.913,249.784ZM239.798,249.845L239.815,249.85L239.798,249.845ZM239.604,249.784C239.627,249.791 239.651,249.799 239.674,249.806C239.651,249.799 239.627,249.791 239.604,249.784ZM239.464,249.738L239.534,249.761L239.464,249.738L239.436,249.728L239.464,249.738ZM247.026,249.747L247.056,249.738L247.026,249.747ZM247.145,249.708L247.204,249.688L247.145,249.708ZM238.776,249.48C238.95,249.551 239.125,249.619 239.303,249.682C239.148,249.627 238.996,249.569 238.844,249.508L238.776,249.48ZM238.507,249.365L238.518,249.37L238.507,249.365L238.461,249.345L238.507,249.365ZM248.163,249.306C248.128,249.322 248.092,249.337 248.057,249.353C248.092,249.337 248.128,249.322 248.163,249.306ZM248.244,249.268L248.23,249.275L248.244,249.268L248.296,249.244L248.244,249.268ZM237.088,248.618C237.458,248.847 237.841,249.056 238.236,249.242C237.841,249.055 237.458,248.847 237.088,248.618ZM248.357,249.215C248.375,249.206 248.394,249.197 248.412,249.188L248.357,249.215ZM255.901,240.336C254.948,243.913 252.513,247.014 249.231,248.748L249.176,248.777C249.131,248.804 249.087,248.83 249.042,248.855C249.069,248.84 249.096,248.825 249.122,248.809L249.176,248.777C252.485,247.049 254.942,243.934 255.901,240.336ZM236.306,248.087C236.475,248.212 236.647,248.333 236.823,248.448C236.647,248.333 236.475,248.212 236.306,248.087ZM235.904,247.775C235.987,247.842 236.071,247.909 236.155,247.973C236.071,247.909 235.987,247.843 235.904,247.775ZM235.625,247.542C235.69,247.598 235.755,247.653 235.821,247.707C235.755,247.653 235.69,247.598 235.625,247.542ZM235.063,247.021C235.215,247.171 235.37,247.317 235.529,247.458C235.37,247.317 235.215,247.171 235.063,247.021ZM234.734,246.682C234.808,246.762 234.884,246.84 234.96,246.918C234.884,246.84 234.808,246.762 234.734,246.682ZM233.991,245.798C234.039,245.862 234.089,245.926 234.139,245.989C234.088,245.926 234.039,245.862 233.991,245.798ZM232.683,243.616L232.652,243.547C232.663,243.57 232.673,243.593 232.683,243.616L232.715,243.684C232.704,243.661 232.694,243.639 232.683,243.616ZM232.461,243.099L232.444,243.058L232.416,242.987C232.431,243.025 232.446,243.062 232.461,243.099ZM232.137,242.191C232.15,242.233 232.163,242.275 232.177,242.317L232.16,242.264L232.137,242.191ZM232.069,241.968L232.048,241.894C232.056,241.921 232.063,241.947 232.071,241.974L232.069,241.968ZM231.838,241.04L231.825,240.979L231.81,240.901C231.819,240.948 231.828,240.994 231.838,241.04ZM255.959,240.981L255.986,240.931C255.977,240.948 255.968,240.964 255.959,240.981L255.933,241.03C255.942,241.014 255.951,240.997 255.959,240.981ZM256.121,240.687L256.133,240.666C256.119,240.689 256.106,240.712 256.093,240.736L256.121,240.687ZM256.261,240.445C256.242,240.477 256.223,240.509 256.204,240.542C256.223,240.509 256.242,240.477 256.261,240.445ZM256.406,240.206L256.436,240.158L256.406,240.206L256.377,240.253C256.387,240.238 256.397,240.222 256.406,240.206ZM256.283,238.223C256.219,238.879 256.106,239.526 255.947,240.158C256.106,239.526 256.219,238.879 256.283,238.223ZM256.496,240.064L256.475,240.097L256.496,240.064ZM256.619,239.876L256.588,239.922L256.619,239.876ZM256.763,239.664L256.777,239.643L256.81,239.597C256.794,239.62 256.778,239.642 256.763,239.664ZM257.508,238.69C257.296,238.943 257.093,239.202 256.901,239.468C257.093,239.202 257.295,238.943 257.508,238.69ZM257.684,238.486C257.634,238.543 257.584,238.601 257.535,238.658L257.572,238.615C257.609,238.572 257.646,238.529 257.684,238.486ZM258.376,237.758C258.231,237.899 258.09,238.043 257.952,238.19L257.991,238.149C258.116,238.016 258.245,237.886 258.376,237.758ZM256.337,237.337C256.331,237.567 256.319,237.797 256.3,238.025C256.319,237.797 256.331,237.567 256.337,237.337ZM258.603,237.542C258.542,237.599 258.48,237.657 258.42,237.716C258.467,237.671 258.514,237.626 258.561,237.581L258.603,237.542ZM256.333,236.507C256.34,236.699 256.343,236.891 256.342,237.082L256.341,237.146C256.344,236.934 256.341,236.72 256.333,236.507ZM256.313,236.117L256.308,236.057L256.304,235.993L256.308,236.057L256.313,236.117ZM286.701,231.355C286.709,231.66 286.712,231.966 286.711,232.273C286.712,231.967 286.709,231.661 286.701,231.355ZM286.635,229.994C286.651,230.209 286.663,230.425 286.674,230.641L286.679,230.747C286.668,230.495 286.653,230.244 286.635,229.994ZM232.326,226.081C232.283,226.235 232.24,226.389 232.199,226.543C232.24,226.389 232.283,226.235 232.326,226.081ZM232.453,225.647C232.42,225.758 232.387,225.869 232.355,225.98C232.387,225.869 232.42,225.758 232.453,225.647ZM233.704,222.182C233.652,222.306 233.599,222.43 233.548,222.555L233.595,222.441C233.631,222.354 233.668,222.268 233.704,222.182ZM234.159,221.166C234.023,221.456 233.892,221.747 233.765,222.042C233.892,221.747 234.024,221.455 234.159,221.166ZM234.242,220.99L234.204,221.071L234.242,220.99L234.294,220.881L234.242,220.99ZM251.892,205.179C244.558,207.557 238.129,213.063 234.411,220.641C238.129,213.063 244.558,207.557 251.892,205.179ZM272.422,206.934C274.816,208.235 276.957,209.896 278.808,211.835L278.882,211.912C277.014,209.94 274.848,208.253 272.422,206.934ZM271.948,206.683C271.898,206.657 271.847,206.631 271.796,206.605L271.893,206.654L271.948,206.683ZM271.504,206.459L271.558,206.485L271.504,206.459L271.47,206.442L271.504,206.459ZM270.86,206.153C270.812,206.13 270.763,206.108 270.715,206.086L270.814,206.132L270.86,206.153ZM269.214,205.466L269.19,205.458L269.087,205.419L269.19,205.458L269.214,205.466ZM265.72,204.426L265.698,204.421L265.72,204.426ZM265.743,260.368C265.791,260.37 265.84,260.373 265.888,260.375L265.815,260.371L265.743,260.368ZM265.597,260.359C265.426,260.348 265.254,260.333 265.084,260.314C265.279,260.336 265.474,260.352 265.67,260.364L265.597,260.359ZM264.727,260.269C264.318,260.21 263.911,260.13 263.51,260.027C263.935,260.136 264.366,260.22 264.799,260.279L264.727,260.269ZM260.421,258.731C260.451,258.749 260.48,258.766 260.51,258.784L260.445,258.745L260.421,258.731ZM273.264,258.084L273.2,258.13C273.327,258.038 273.454,257.942 273.58,257.844C273.475,257.926 273.37,258.006 273.264,258.084ZM259.074,257.783C259.114,257.816 259.154,257.848 259.194,257.88L259.134,257.832L259.074,257.783ZM258.836,257.585L258.777,257.534C258.816,257.568 258.856,257.602 258.895,257.635L258.954,257.685C258.915,257.652 258.875,257.619 258.836,257.585ZM257.762,256.545L257.816,256.604C257.744,256.526 257.673,256.447 257.602,256.366L257.549,256.306C257.619,256.387 257.69,256.467 257.762,256.545ZM257.288,255.996L257.237,255.933C257.288,255.996 257.34,256.059 257.392,256.121L257.444,256.183C257.392,256.122 257.34,256.059 257.288,255.996Z" style="fill:white;"/>
        </g>
        <g transform="matrix(1.07942e-16,-1.76282,1.76282,1.07942e-16,-508.684,437.723)">
            <g transform="matrix(1,0,0,1,-32.2109,-8.75705)">
                <rect x="45.477" y="346.487" width="15.068" height="21.295" style="fill:white;"/>
                <g transform="matrix(1,0,0,1,23.5664,0)">
                    <rect x="45.477" y="346.487" width="15.068" height="21.295" style="fill:white;"/>
                </g>
                <g transform="matrix(1,0,0,1,47.1328,0)">
                    <rect x="45.477" y="346.487" width="15.068" height="21.295" style="fill:white;"/>
                </g>
                <g transform="matrix(1,0,0,1,70.6992,0)">
                    <rect x="45.477" y="346.487" width="15.068" height="21.295" style="fill:white;"/>
                </g>
            </g>
            <g transform="matrix(1,0,0,1,-32.2109,18.5366)">
                <rect x="45.477" y="346.487" width="15.068" height="21.295" style="fill:white;"/>
                <g transform="matrix(1,0,0,1,23.5664,0)">
                    <rect x="45.477" y="346.487" width="15.068" height="21.295" style="fill:white;"/>
                </g>
                <g transform="matrix(1,0,0,1,47.1328,0)">
                    <rect x="45.477" y="346.487" width="15.068" height="21.295" style="fill:white;"/>
                </g>
                <g transform="matrix(1,0,0,1,70.6992,0)">
                    <rect x="45.477" y="346.487" width="15.068" height="21.295" style="fill:white;"/>
                </g>
            </g>
            <g transform="matrix(1,0,0,1,-32.2109,45.8302)">
                <rect x="45.477" y="346.487" width="15.068" height="21.295" style="fill:white;"/>
                <g transform="matrix(1,0,0,1,23.5664,0)">
                    <rect x="45.477" y="346.487" width="15.068" height="21.295" style="fill:white;"/>
                </g>
                <g transform="matrix(1,0,0,1,47.1328,0)">
                    <rect x="45.477" y="346.487" width="15.068" height="21.295" style="fill:white;"/>
                </g>
                <g transform="matrix(1,0,0,1,70.6992,0)">
                    <rect x="45.477" y="346.487" width="15.068" height="21.295" style="fill:white;"/>
                </g>
            </g>
            <g transform="matrix(1,0,0,1,-32.2109,-36.0507)">
                <rect x="45.477" y="346.487" width="15.068" height="21.295" style="fill:white;"/>
                <g transform="matrix(1,0,0,1,23.5664,0)">
                    <rect x="45.477" y="346.487" width="15.068" height="21.295" style="fill:white;"/>
                </g>
                <g transform="matrix(1,0,0,1,47.1328,0)">
                    <rect x="45.477" y="346.487" width="15.068" height="21.295" style="fill:white;"/>
                </g>
                <g transform="matrix(1,0,0,1,70.6992,0)">
                    <rect x="45.477" y="346.487" width="15.068" height="21.295" style="fill:white;"/>
                </g>
            </g>
            <g transform="matrix(1,0,0,1,-32.2109,-63.3443)">
                <rect x="45.477" y="346.487" width="15.068" height="21.295" style="fill:white;"/>
                <g transform="matrix(1,0,0,1,23.5664,0)">
                    <rect x="45.477" y="346.487" width="15.068" height="21.295" style="fill:white;"/>
                </g>
                <g transform="matrix(1,0,0,1,47.1328,0)">
                    <rect x="45.477" y="346.487" width="15.068" height="21.295" style="fill:white;"/>
                </g>
                <g transform="matrix(1,0,0,1,70.6992,0)">
                    <rect x="45.477" y="346.487" width="15.068" height="21.295" style="fill:white;"/>
                </g>
            </g>
        </g>
    </g>
</svg>
